<?xml version="1.0" standalone="no"?>
<!DOCTYPE svg PUBLIC "-//W3C//DTD SVG 20010904//EN"
 "http://www.w3.org/TR/2001/REC-SVG-20010904/DTD/svg10.dtd">
<svg version="1.0" xmlns="http://www.w3.org/2000/svg"
 width="660.000000pt" height="436.000000pt" viewBox="0 0 660.000000 436.000000"
 preserveAspectRatio="xMidYMid meet">

<g transform="translate(0.000000,436.000000) scale(0.100000,-0.100000)"
fill="#000000" stroke="none">
<path d="M65 4351 c-11 -5 -29 -19 -40 -31 -20 -22 -20 -36 -20 -2141 l0
-2119 28 -27 27 -28 3240 0 3240 0 27 28 28 27 3 2100 c2 1830 0 2105 -13
2136 -29 70 257 64 -3292 63 -1764 0 -3217 -4 -3228 -8z m3556 -1309 c111 -53
193 -159 218 -284 10 -46 16 -57 36 -62 12 -3 46 -24 73 -46 72 -56 113 -143
115 -239 1 -61 -3 -78 -34 -138 -24 -48 -48 -78 -84 -105 -90 -69 -91 -69
-661 -66 -496 3 -510 4 -555 24 -67 31 -124 87 -156 152 -24 48 -28 70 -28
137 0 67 5 88 27 130 36 68 94 121 162 149 51 21 60 29 81 72 27 58 66 97 117
118 42 18 104 21 142 7 22 -9 28 -5 61 37 42 56 115 108 187 134 84 30 214 21
299 -20z m-1131 -1427 l0 -74 36 24 c43 29 64 31 109 9 52 -24 66 -69 63 -194
l-3 -105 -45 0 -45 0 -5 110 -5 110 -31 3 c-25 2 -37 -3 -53 -24 -18 -23 -21
-40 -21 -115 l0 -89 -45 0 -45 0 0 210 0 210 45 0 45 0 0 -75z m2268 -132 l-3
-208 -38 -3 c-21 -2 -44 1 -51 7 -7 6 -17 6 -26 1 -28 -18 -95 -11 -130 13
-95 63 -98 212 -7 267 47 29 91 35 126 17 l31 -15 0 64 0 64 50 0 50 0 -2
-207z m152 167 l0 -40 -50 0 -50 0 0 40 0 40 50 0 50 0 0 -40z m-932 -32 c3
-35 6 -38 33 -38 27 0 29 -2 29 -40 0 -38 -2 -40 -30 -40 l-30 0 0 -70 0 -70
31 0 c29 0 30 -1 27 -42 -3 -42 -4 -43 -42 -46 -92 -8 -116 23 -116 148 0 73
-2 80 -20 80 -17 0 -20 7 -20 40 0 33 3 40 20 40 17 0 20 7 20 41 l0 40 48 -3
c47 -3 47 -3 50 -40z m-2424 -43 c54 -26 66 -58 66 -184 l0 -111 -45 0 -45 0
0 84 c0 105 -10 136 -45 136 -14 0 -37 -11 -50 -25 -23 -22 -25 -32 -25 -110
l0 -85 -45 0 -45 0 0 150 0 150 45 0 c39 0 45 -3 45 -22 0 -20 1 -20 18 -5 19
17 59 35 80 36 8 1 28 -6 46 -14z m355 -13 c45 -33 65 -69 65 -119 l1 -48
-105 -5 c-103 -5 -105 -5 -80 -22 27 -20 71 -23 99 -8 14 7 24 3 46 -20 l27
-28 -27 -18 c-15 -10 -53 -20 -86 -22 -49 -4 -65 0 -102 21 -110 65 -103 216
13 275 51 26 108 24 149 -6z m370 0 c70 -51 89 -136 49 -211 -38 -71 -131
-104 -186 -65 l-22 15 0 -65 0 -66 -50 0 -50 0 0 205 0 205 50 0 c28 0 50 -5
50 -10 0 -6 12 -4 28 5 33 19 96 12 131 -13z m673 18 c47 -13 105 -77 114
-126 27 -145 -161 -243 -270 -141 -67 63 -68 162 -4 224 51 48 97 60 160 43z
m322 -4 c30 -12 66 -49 66 -67 0 -4 -18 -11 -40 -17 -31 -8 -42 -7 -51 4 -16
19 -41 18 -37 -2 2 -9 26 -25 53 -35 28 -10 58 -28 68 -40 25 -31 22 -81 -7
-112 -30 -32 -63 -41 -124 -34 -36 4 -53 12 -74 36 -15 17 -28 35 -28 40 0 5
16 15 36 21 30 10 38 9 53 -4 10 -9 28 -16 40 -16 38 0 20 32 -26 47 -48 16
-93 63 -93 98 0 30 44 82 73 88 42 8 58 7 91 -7z m488 -23 c37 -36 35 -50 -9
-62 -30 -9 -38 -7 -48 6 -7 10 -19 14 -29 10 -28 -11 -18 -24 38 -47 30 -12
62 -31 72 -41 27 -30 23 -84 -8 -116 -51 -50 -177 -40 -208 16 -16 30 -12 38
22 50 25 9 35 8 49 -5 19 -17 60 -16 66 3 2 6 -13 17 -34 23 -77 25 -113 68
-104 125 11 73 132 96 193 38z m1428 15 c57 -30 82 -65 88 -126 12 -133 -126
-216 -243 -147 -74 43 -99 146 -52 216 24 37 97 79 137 79 14 0 46 -10 70 -22z
m-1010 -82 c0 -117 3 -126 46 -126 51 0 64 27 64 132 l0 88 50 0 51 0 -3 -152
-3 -153 -43 -3 c-36 -3 -44 0 -49 16 -5 20 -5 20 -39 0 -65 -38 -143 -4 -164
71 -5 20 -10 78 -10 129 l0 92 50 0 50 0 0 -94z m730 -62 l0 -155 -47 3 -48 3
-3 153 -3 152 51 0 50 0 0 -156z"/>
<path d="M3210 2501 c0 -116 3 -211 6 -211 7 0 238 201 242 210 3 7 -221 202
-239 208 -5 2 -9 -82 -9 -207z"/>
<path d="M4550 1480 c-42 -42 -14 -120 43 -120 40 0 53 9 66 43 27 71 -56 130
-109 77z"/>
<path d="M1780 1485 c-19 -22 -9 -26 56 -23 55 3 57 4 40 21 -21 21 -79 22
-96 2z"/>
<path d="M2137 1482 c-23 -25 -22 -85 1 -105 25 -22 75 -21 95 1 23 25 22 85
-1 105 -25 22 -75 21 -95 -1z"/>
<path d="M2856 1478 c-22 -30 -20 -81 2 -101 25 -22 75 -21 95 1 23 25 22 85
-1 105 -27 25 -78 22 -96 -5z"/>
<path d="M5070 1473 c-22 -29 -22 -72 1 -100 15 -17 83 -17 98 0 39 47 8 127
-49 127 -19 0 -36 -9 -50 -27z"/>
</g>
</svg>
